<svg xmlns="http://www.w3.org/2000/svg" width="554" height="320" viewBox="0 0 554 320">
    <defs>
        <style>
            .rect_puddle_logo_outline {
                fill: none;
            }
            .path_puddle_logo_background_color {
                fill: #202020;
            }
            .path_puddle_logo_color {
                fill: #fff;
            }
        </style>
    </defs>
        <g transform="translate(-683 -380)">
        <rect class="rect_puddle_logo_outline" width="554" height="320" transform="translate(683 380)"/>
        <path class="path_puddle_logo_background_color" d="M846.708,491.233C835.99,502.547,769.3,493.02,707.971,573.4S833.459,688.024,962.817,683.559,1215.281,639.5,1212.3,589.48s-57.7-84.427-62.521-98.247,41.68-26.2,22.626-60.734-204.829-41.085-265.564-6.55S857.425,479.92,846.708,491.233Z"/>
        <path class="path_puddle_logo_color" d="M97.208,145.778h0a122.461,122.461,0,0,1-14.675-.884,114.646,114.646,0,0,1-14.053-2.585,45.6,45.6,0,0,1-15.292-7.372,81.348,81.348,0,0,1-13.737-12.766c-7.614-8.734-15.087-20.124-22.21-33.853a316.787,316.787,0,0,1-14.2-31.843c-3.223-8.421-4.981-14.053-5-14.109C11.726,29.908,25.725,20.793,40.834,14.5,53.85,9.081,65.4,6.672,75.6,4.546,84.944,2.6,93.014.914,99.4-2.623L107.178,26.2h.007a91.006,91.006,0,0,1,9.865,2.567,109.148,109.148,0,0,1,21.761,9.49c9.2,5.358,16.564,11.782,21.873,19.091a53,53,0,0,1,7.3,13.983,55.609,55.609,0,0,1,2.908,17.389,53.627,53.627,0,0,1-3.646,20.693,47.478,47.478,0,0,1-10.391,15.747,57.637,57.637,0,0,1-12.094,9.25,75.975,75.975,0,0,1-14.533,6.418,98.167,98.167,0,0,1-16.131,3.738A116.431,116.431,0,0,1,97.208,145.778ZM86.582,101.926c-5.7,0-11.859,2.037-12.769,6.588a6.774,6.774,0,0,0,1.71,5.758c1.938,2.363,5.474,4.617,9.958,6.346a32.064,32.064,0,0,0,10.044,2.329,7.653,7.653,0,0,0,6.718-3.51c1.675-2.791,1.348-6.671-.92-10.923C98.728,103.651,91.761,101.926,86.582,101.926Z" transform="translate(749.27 504.76)"/>
        <path class="path_puddle_logo_color" d="M913.936,432.363c56.507-36.381,243.454-25.459,250.781,3.387s-27.745,38.034-26.661,50.745,6.33,10.657,4.717,13.883-19.083,1.076-34.08,22.972-55.443,12.959-55.443,12.959,10.452-9.384,5.908-18.321c-3.058-6.015-26.229-9.666-33.629-25.471-3.412-7.289,14.684-19.762,6.362-32.621C1006.443,420.573,913.936,432.363,913.936,432.363Z" transform="translate(-2.09 1.886)"/>
        <path class="path_puddle_logo_color" d="M912.388,529.936c-.916-7.786,11.447-.688,29.772,0,25.9.971,59.543,0,59.543,0s-27.023,6.412-22.9,16.489-33.894,18.779-36.642,16.947c-3.664-10.993-10.535-10.993-10.535-10.993s9.161-2.748,2.748-9.619C926.93,533.829,913.762,540.471,912.388,529.936Z"/>
        <path class="path_puddle_logo_color" d="M1049.338,584.441s34.352-5.038,54.963,6.87-4.981,14.557-13.283,16.489-27.024,19.237-27.024,19.237c5.954-16.947-15.115-10.993-17.4-19.237S1061.246,600.472,1049.338,584.441Z"/>
    </g>
</svg>